<svg xmlns="http://www.w3.org/2000/svg" xmlns:xlink="http://www.w3.org/1999/xlink" width="1000" height="1000" viewBox="0 0 1000 1000" xml:space="preserve"><desc>Created with Fabric.js 3.5.0</desc><defs></defs><rect x="0" y="0" width="100%" height="100%" fill="#ffffff"></rect><g transform="matrix(-2.0292 0 0 2.0292 499.9953 499.9953)" id="762912"><path style="stroke: none; stroke-width: 1; stroke-dasharray: none; stroke-linecap: butt; stroke-dashoffset: 0; stroke-linejoin: miter; stroke-miterlimit: 4; is-custom-font: none; font-file-url: none; fill: rgb(0,0,255); fill-rule: nonzero; opacity: 1;" transform=" translate(-224, -256)" d="M 0 96 v 320 c 0 35.35 28.65 64 64 64 h 320 c 35.35 0 64 -28.65 64 -64 V 96 c 0 -35.35 -28.65 -64 -64 -64 H 64 C 28.65 32 0 60.65 0 96 z M 105.5 303.6 l 54.24 -23.25 c 6.391 -2.766 13.9 -0.9062 18.24 4.484 l 22.02 26.91 c 34.63 -17 62.77 -45.14 79.77 -79.75 l -26.91 -22.05 c -5.375 -4.391 -7.211 -11.83 -4.492 -18.22 l 23.27 -54.28 c 3.047 -6.953 10.59 -10.77 17.93 -9.062 l 50.38 11.63 c 7.125 1.625 12.11 7.891 12.11 15.22 c 0 126.1 -102.6 228.8 -228.7 228.8 c -7.336 0 -13.6 -4.984 -15.24 -12.11 l -11.62 -50.39 C 94.71 314.2 98.5 306.6 105.5 303.6 z" stroke-linecap="round"></path></g></svg>